# File created by Blade
# Date/Time:  Wed Apr 08 17:00:23 2015
#---------------------------------------------------------
:version 1.10
:name HOM
:units
  mass 1.0
  length 1.000000
  angle deg
:documentation
     Acclaim Skeleton File
:root
   axis xyz
   order TX TY TZ RX RY RZ
   position 0.000000 0.000000 0.000000
   orientation 0 0 0
:bonedata
   begin
      id 1
      name Spine_dum
      direction 0.000000 1.000000 0.000000
      length 5.893853
      axis 0.0 0.0 0.0 xyz
   end
   begin
      id 2
      name LeftUpLeg_dum
      direction 1.000000 0.000000 0.000000
      length 3.697939
      axis 0.0 0.0 0.0 xyz
   end
   begin
      id 3
      name RightUpLeg_dum
      direction -1.000000 0.000000 0.000000
      length 3.697939
      axis 0.0 0.0 0.0 xyz
   end
   begin
      id 4
      name Spine
      direction 0.000000 1.000000 0.000000
      length 0.000000
      axis 0.0 0.0 0.0 xyz
      dof rx ry rz
   end
   begin
      id 5
      name Spine_dum1
      direction 0.000000 1.000000 0.000000
      length 16.447146
      axis 0.0 0.0 0.0 xyz
   end
   begin
      id 6
      name Spine_dum2
      direction 0.000000 1.000000 0.000000
      length 10.900383
      axis 0.0 0.0 0.0 xyz
   end
   begin
      id 7
      name Spine_dum3
      direction 0.000000 1.000000 0.000000
      length 10.900383
      axis 0.0 0.0 0.0 xyz
   end
   begin
      id 8
      name Head
      direction 0.000000 1.000000 0.000000
      length 4.527550
      axis 0.0 0.0 0.0 xyz
      dof rx ry rz
   end
   begin
      id 9
      name LeftShoulder
      direction 1.000000 0.000000 0.000000
      length 8.219464
      axis 0.0 0.0 -90.0 xyz
      dof rx ry rz
   end
   begin
      id 10
      name LeftArm
      direction 1.000000 0.000000 0.000000
      length 11.094937
      axis 0.0 0.0 -90.0 xyz
      dof rx ry rz
   end
   begin
      id 11
      name LeftForeArm
      direction 1.000000 0.000000 0.000000
      length 9.103875
      axis 0.0 0.0 -90.0 xyz
      dof ry rz rx
   end
   begin
      id 12
      name LeftHand
      direction 0.000000 0.000000 0.000000
      length 0.000000
      axis 0.0 0.0 -90.0 xyz
      dof rx ry rz
   end
   begin
      id 13
      name LeftHand_dum1
      direction 0.000000 0.000000 0.000000
      length 0.000000
      axis 0.0 0.0 -90.0 xyz
   end
   begin
      id 14
      name LeftHand_dum2
      direction 1.000000 0.000000 0.000000
      length 3.937000
      axis 0.0 0.0 -90.0 xyz
   end
   begin
      id 15
      name LeftHandThumb1
      direction 0.000000 0.000000 1.000000
      length 3.937000
      axis 0.0 0.0 -90.0 xyz
      dof rx rz ry
   end
   begin
      id 16
      name RightShoulder
      direction -1.000000 0.000000 0.000000
      length 8.219464
      axis 0.0 0.0 90.0 xyz
      dof rx ry rz
   end
   begin
      id 17
      name RightArm
      direction -1.000000 0.000000 0.000000
      length 11.094937
      axis 0.0 0.0 90.0 xyz
      dof rx ry rz
   end
   begin
      id 18
      name RightForeArm
      direction -1.000000 0.000000 0.000000
      length 9.103875
      axis 0.0 0.0 90.0 xyz
      dof ry rz rx
   end
   begin
      id 19
      name RightHand
      direction 0.000000 0.000000 0.000000
      length 0.000000
      axis 0.0 0.0 90.0 xyz
      dof rx ry rz
   end
   begin
      id 20
      name RightHand_dum1
      direction 0.000000 0.000000 0.000000
      length 0.000000
      axis 0.0 0.0 90.0 xyz
   end
   begin
      id 21
      name RightHand_dum2
      direction -1.000000 0.000000 0.000000
      length 3.937000
      axis 0.0 0.0 90.0 xyz
   end
   begin
      id 22
      name RightHandThumb1
      direction 0.000000 0.000000 1.000000
      length 3.937000
      axis 0.0 0.0 90.0 xyz
      dof rx rz ry
   end
   begin
      id 23
      name LeftUpLeg
      direction 0.000000 -1.000000 0.000000
      length 16.181467
      axis 0.0 0.0 0.0 xyz
      dof rx ry rz
   end
   begin
      id 24
      name LeftLeg
      direction 0.000000 -1.000000 0.000000
      length 16.501392
      axis 0.0 0.0 0.0 xyz
      dof rx ry rz
   end
   begin
      id 25
      name LeftFoot
      direction 0.000000 -0.258819 0.965926
      length 6.408245
      axis 15.0 0.0 0.0 xyz
      dof rx ry rz
   end
   begin
      id 26
      name LeftToeBase
      direction 0.000000 0.000000 1.000000
      length 2.952750
      axis 0.0 0.0 0.0 xyz
      dof rx ry rz
   end
   begin
      id 27
      name RightUpLeg
      direction 0.000000 -1.000000 0.000000
      length 16.181467
      axis 0.0 0.0 0.0 xyz
      dof rx ry rz
   end
   begin
      id 28
      name RightLeg
      direction 0.000000 -1.000000 0.000000
      length 16.501392
      axis 0.0 0.0 0.0 xyz
      dof rx ry rz
   end
   begin
      id 29
      name RightFoot
      direction 0.000000 -0.258819 0.965926
      length 6.408245
      axis 15.0 0.0 0.0 xyz
      dof rx ry rz
   end
   begin
      id 30
      name RightToeBase
      direction 0.000000 0.000000 1.000000
      length 2.952750
      axis 0.0 0.0 0.0 xyz
      dof rx ry rz
   end
:hierarchy
   begin
      root Spine_dum LeftUpLeg_dum RightUpLeg_dum
      Spine_dum Spine
      LeftUpLeg_dum LeftUpLeg
      RightUpLeg_dum RightUpLeg
      Spine Spine_dum1 Spine_dum2 Spine_dum3
      Spine_dum1 Head
      Spine_dum2 LeftShoulder
      Spine_dum3 RightShoulder
      LeftShoulder LeftArm
      LeftArm LeftForeArm
      LeftForeArm LeftHand
      LeftHand LeftHand_dum1 LeftHand_dum2
      LeftHand_dum1 LeftHandThumb1
      RightShoulder RightArm
      RightArm RightForeArm
      RightForeArm RightHand
      RightHand RightHand_dum1 RightHand_dum2
      RightHand_dum1 RightHandThumb1
      LeftUpLeg LeftLeg
      LeftLeg LeftFoot
      LeftFoot LeftToeBase
      RightUpLeg RightLeg
      RightLeg RightFoot
      RightFoot RightToeBase
   end

# File created by Blade
# Date/Time:  Wed Apr 08 17:00:17 2015
# Frame Rate: 120.000 fps
#------------------------------------------------------
:FULLY-SPECIFIED
:DEGREES
771
root 1.124611 35.647032 2.935664 -26.565349 -76.227355 13.869744
Spine 8.849272 5.947675 -8.585352
Head -8.149659 4.593986 -11.976443
LeftShoulder 7.461484 -1.160519 23.708216
LeftArm 89.227566 46.349689 -47.834719
LeftForeArm -45.069323 -0.000000 95.451503
LeftHand -31.427812 0.000000 15.836199
LeftHandThumb1 -26.253704 0.000000 33.147579
RightShoulder 0.284731 -30.512002 -27.001442
RightArm 112.694106 23.220870 91.628989
RightForeArm 60.681308 -0.000000 135.610328
RightHand 6.301046 0.000000 29.042692
RightHandThumb1 -24.326973 -0.000000 -32.862282
LeftUpLeg 13.300415 4.133898 4.354710
LeftLeg 13.041984 -0.000000 -0.000000
LeftFoot -14.408353 -2.046009 -10.697839
LeftToeBase 9.524146 -0.000000 -0.000000
RightUpLeg 24.722884 -18.796577 -18.674685
RightLeg 1.767155 -0.000000 -0.000000
RightFoot -12.746287 4.282390 20.235015
RightToeBase 14.271210 -0.000000 -0.000000
772
root 1.122922 35.648131 2.938101 -26.591422 -76.265130 13.923738
Spine 8.775830 5.882155 -8.527637
Head -7.947896 4.621812 -12.000755
LeftShoulder 7.440594 -1.178014 23.718207
LeftArm 89.246172 46.307103 -47.739964
LeftForeArm -44.868354 0.000000 95.552383
LeftHand -31.449366 -0.000000 15.934700
LeftHandThumb1 -26.253704 0.000000 33.147579
RightShoulder 0.221689 -30.437816 -26.950006
RightArm 113.034527 22.837051 92.791496
RightForeArm 61.181317 0.000000 135.568754
RightHand 6.656560 -0.000000 28.370160
RightHandThumb1 -24.326973 -0.000000 -32.862282
LeftUpLeg 13.292341 4.147225 4.348370
LeftLeg 13.025353 -0.000000 -0.000000
LeftFoot -14.392633 -2.051217 -10.752853
LeftToeBase 9.471271 -0.000000 -0.000000
RightUpLeg 24.676250 -18.767947 -18.661170
RightLeg 1.777547 -0.000000 -0.000000
RightFoot -12.744002 4.278874 20.232482
RightToeBase 14.299697 -0.000000 -0.000000
773
root 1.121022 35.649640 2.940253 -26.602478 -76.304609 13.972664
Spine 8.679304 5.817912 -8.470911
Head -7.708194 4.653137 -12.015296
LeftShoulder 7.432824 -1.220462 23.744527
LeftArm 89.221294 46.287868 -47.676312
LeftForeArm -44.628426 -0.000000 95.666511
LeftHand -31.423416 -0.000000 16.119960
LeftHandThumb1 -26.253704 0.000000 33.147579
RightShoulder 0.181312 -30.336924 -26.910835
RightArm 113.317422 22.455410 93.972699
RightForeArm 61.627514 -0.000000 135.540630
RightHand 6.681479 -0.000000 27.625098
RightHandThumb1 -24.326973 -0.000000 -32.862282
LeftUpLeg 13.272487 4.167169 4.344321
LeftLeg 13.014573 -0.000000 -0.000000
LeftFoot -14.375214 -2.041436 -10.769761
LeftToeBase 9.454219 -0.000000 -0.000000
RightUpLeg 24.616591 -18.745826 -18.644352
RightLeg 1.797637 -0.000000 -0.000000
RightFoot -12.736457 4.298050 20.265822
RightToeBase 14.304595 -0.000000 -0.000000
774
root 1.119321 35.650879 2.942249 -26.622842 -76.329526 14.020264
Spine 8.602843 5.752406 -8.423087
Head -7.484520 4.663020 -12.019713
LeftShoulder 7.431910 -1.235138 23.757339
LeftArm 89.281126 46.232616 -47.559944
LeftForeArm -44.414638 -0.000000 95.730512
LeftHand -31.416737 0.000000 16.242435
LeftHandThumb1 -26.253704 0.000000 33.147579
RightShoulder 0.126408 -30.300759 -26.843192
RightArm 113.689837 22.046626 95.194417
RightForeArm 62.069372 -0.000000 135.486404
RightHand 7.082305 -0.000000 26.893825
RightHandThumb1 -24.326973 -0.000000 -32.862282
LeftUpLeg 13.264878 4.180495 4.334188
LeftLeg 12.994669 -0.000000 -0.000000
LeftFoot -14.394861 -1.991402 -10.741623
LeftToeBase 9.557760 -0.000000 -0.000000
RightUpLeg 24.579209 -18.725063 -18.634850
RightLeg 1.800713 -0.000000 -0.000000
RightFoot -12.725537 4.297045 20.252328
RightToeBase 14.290778 -0.000000 -0.000000
775
root 1.116437 35.652204 2.944500 -26.639378 -76.360453 14.056157
Spine 8.535735 5.689902 -8.370920
Head -7.284110 4.668606 -12.020626
LeftShoulder 7.432704 -1.302111 23.792357
LeftArm 89.260415 46.229953 -47.551326
LeftForeArm -44.224489 -0.000000 95.799104
LeftHand -31.513572 -0.000000 16.263466
LeftHandThumb1 -26.253704 0.000000 33.147579
RightShoulder 0.081066 -30.206949 -26.781804
RightArm 113.981599 21.656460 96.383230
RightForeArm 62.414897 -0.000000 135.481553
RightHand 7.585433 -0.000000 26.112080
RightHandThumb1 -24.326973 -0.000000 -32.862282
LeftUpLeg 13.269091 4.198299 4.331223
LeftLeg 12.971466 -0.000000 -0.000000
LeftFoot -14.375375 -1.998170 -10.779335
LeftToeBase 9.507626 -0.000000 -0.000000
RightUpLeg 24.546337 -18.718322 -18.633899
RightLeg 1.817561 -0.000000 -0.000000
RightFoot -12.708438 4.320277 20.238410
RightToeBase 14.267434 -0.000000 -0.000000
776
root 1.113759 35.653590 2.946636 -26.669000 -76.386654 14.110690
Spine 8.463553 5.611850 -8.325062
Head -7.090159 4.693314 -12.037822
LeftShoulder 7.421744 -1.329049 23.815066
LeftArm 89.274352 46.196626 -47.496592
LeftForeArm -44.059467 -0.000000 95.903675
LeftHand -31.625969 0.000000 16.418490
LeftHandThumb1 -26.253704 0.000000 33.147579
RightShoulder 0.052645 -30.123488 -26.707008
RightArm 114.265862 21.271750 97.515806
RightForeArm 62.713050 -0.000000 135.452278
RightHand 8.167422 -0.000000 25.179413
RightHandThumb1 -24.326973 -0.000000 -32.862282
LeftUpLeg 13.267827 4.219027 4.324536
LeftLeg 12.948882 -0.000000 -0.000000
LeftFoot -14.377488 -1.969983 -10.768266
LeftToeBase 9.527473 -0.000000 -0.000000
RightUpLeg 24.519110 -18.709127 -18.631322
RightLeg 1.811596 -0.000000 -0.000000
RightFoot -12.696031 4.320966 20.221695
RightToeBase 14.270477 -0.000000 -0.000000
777
root 1.110797 35.654765 2.948842 -26.688375 -76.410931 14.144586
Spine 8.408904 5.538911 -8.273616
Head -6.922401 4.717069 -12.061583
LeftShoulder 7.410872 -1.366783 23.835941
LeftArm 89.304372 46.165198 -47.443691
LeftForeArm -43.893996 -0.000000 96.002494
LeftHand -31.798527 -0.000000 16.658462
LeftHandThumb1 -26.253704 0.000000 33.147579
RightShoulder 0.000381 -30.056543 -26.644035
RightArm 114.524757 20.868839 98.663615
RightForeArm 63.002244 -0.000000 135.408466
RightHand 8.661067 -0.000000 23.944208
RightHandThumb1 -24.326973 -0.000000 -32.862282
LeftUpLeg 13.281418 4.238926 4.322985
LeftLeg 12.914863 -0.000000 -0.000000
LeftFoot -14.347670 -1.978578 -10.806647
LeftToeBase 9.462124 -0.000000 -0.000000
RightUpLeg 24.507409 -18.712284 -18.637412
RightLeg 1.803278 -0.000000 -0.000000
RightFoot -12.667561 4.348429 20.227901
RightToeBase 14.265288 -0.000000 -0.000000
778
root 1.107873 35.655974 2.952780 -26.749272 -76.437707 14.221710
Spine 8.350291 5.448613 -8.223074
Head -6.760406 4.764747 -12.110894
LeftShoulder 7.367846 -1.401820 23.842716
LeftArm 89.384994 46.140730 -47.330199
LeftForeArm -43.626997 -0.000000 96.078627
LeftHand -31.772081 -0.000000 16.875889
LeftHandThumb1 -26.253704 0.000000 33.147579
RightShoulder -0.045794 -29.984826 -26.574357
RightArm 114.786014 20.456008 99.749507
RightForeArm 63.433153 -0.000000 135.293338
RightHand 9.137150 -0.000000 22.818588
RightHandThumb1 -24.326973 -0.000000 -32.862282
LeftUpLeg 13.294286 4.269068 4.311890
LeftLeg 12.885261 -0.000000 -0.000000
LeftFoot -14.356579 -1.948781 -10.772971
LeftToeBase 9.564686 -0.000000 -0.000000
RightUpLeg 24.491801 -18.708002 -18.651519
RightLeg 1.796565 -0.000000 -0.000000
RightFoot -12.648747 4.363648 20.212310
RightToeBase 14.256542 -0.000000 -0.000000
779
root 1.103916 35.657188 2.955978 -26.802650 -76.465466 14.284790
Spine 8.294719 5.351208 -8.172638
Head -6.602944 4.829108 -12.160125
LeftShoulder 7.346570 -1.446028 23.858233
LeftArm 89.323539 46.137081 -47.351400
LeftForeArm -43.423238 -0.000000 96.234275
LeftHand -31.863605 0.000000 17.224616
LeftHandThumb1 -26.253704 0.000000 33.147579
RightShoulder -0.087405 -29.886728 -26.515324
RightArm 114.975744 20.048606 100.788966
RightForeArm 63.847862 -0.000000 135.152241
RightHand 9.598001 -0.000000 21.333849
RightHandThumb1 -24.326973 -0.000000 -32.862282
LeftUpLeg 13.319188 4.303461 4.308242
LeftLeg 12.846561 -0.000000 -0.000000
LeftFoot -14.341565 -1.941736 -10.754111
LeftToeBase 9.557495 -0.000000 -0.000000
RightUpLeg 24.491044 -18.713139 -18.667389
RightLeg 1.779287 -0.000000 -0.000000
RightFoot -12.619716 4.389998 20.213650
RightToeBase 14.273244 -0.000000 -0.000000
780
root 1.100121 35.658193 2.959820 -26.845387 -76.496416 14.341975
Spine 8.235678 5.249361 -8.107307
Head -6.448429 4.881539 -12.240402
LeftShoulder 7.318975 -1.466845 23.846381
LeftArm 89.359991 46.090584 -47.268865
LeftForeArm -43.180417 -0.000000 96.369779
LeftHand -31.995823 -0.000000 17.390047
LeftHandThumb1 -26.253704 0.000000 33.147579
RightShoulder -0.125006 -29.803545 -26.480075
RightArm 115.141043 19.666001 101.797460
RightForeArm 64.291088 -0.000000 134.961635
RightHand 10.462626 0.000000 20.047594
RightHandThumb1 -24.326973 -0.000000 -32.862282
LeftUpLeg 13.348743 4.322569 4.300821
LeftLeg 12.789888 -0.000000 -0.000000
LeftFoot -14.303836 -1.958412 -10.812036
LeftToeBase 9.479092 -0.000000 -0.000000
RightUpLeg 24.481788 -18.692780 -18.668350
RightLeg 1.759055 -0.000000 -0.000000
RightFoot -12.609064 4.392699 20.198501
RightToeBase 14.268804 -0.000000 -0.000000
781
root 1.096365 35.659508 2.963815 -26.908580 -76.532414 14.415169
Spine 8.175215 5.147599 -8.053322
Head -6.273878 4.968167 -12.285375
LeftShoulder 7.293782 -1.479598 23.855314
LeftArm 89.237660 46.087878 -47.356727
LeftForeArm -43.151746 -0.000000 96.555728
LeftHand -32.243632 -0.000000 17.506999
LeftHandThumb1 -26.253704 0.000000 33.147579
RightShoulder -0.142257 -29.667673 -26.439428
RightArm 115.221301 19.330160 102.765548
RightForeArm 64.882859 0.000000 134.724651
RightHand 10.499683 -0.000000 19.199598
RightHandThumb1 -24.326973 -0.000000 -32.862282
LeftUpLeg 13.376011 4.358310 4.295211
LeftLeg 12.753122 -0.000000 -0.000000
LeftFoot -14.314595 -1.920486 -10.781512
LeftToeBase 9.540326 -0.000000 -0.000000
RightUpLeg 24.480855 -18.677734 -18.676430
RightLeg 1.730482 -0.000000 -0.000000
RightFoot -12.572077 4.405170 20.209232
RightToeBase 14.263333 -0.000000 -0.000000
